# xmcd CD database file
#
# Track frame offsets:
#	150
#	26152
#	43107
#	57897
#	79235
#	94662
#	124161
#	143688
#	158734
#
# Disc length: 2474 seconds
#
# Revision: 2
# Processed by: cddbd v1.4b41PL1 Copyright (c) Steve Scherf et al.
# Submitted via: Feurio! 1.52 - http://www.feurio.com
#
DISCID=7209a809
DTITLE=Monokel - Monokel
DYEAR=1900
DGENRE=
TTITLE0=Kindertraum
TTITLE1=Das Landei
TTITLE2=Paule Glotzmann
TTITLE3=Schwarze Marie
TTITLE4=Boogie Mobil
TTITLE5=Man schmiedet doch anders herum
TTITLE6=Bye bye Lübben City
TTITLE7=Oma Krüger
TTITLE8=Das Monster vom Schilkinsee oder der Bär, der Frohsinn bringt
EXTD=Fünf nette, junge Herren, die 1a KRAFT-BLUES machen!
EXTT0=
EXTT1=
EXTT2=
EXTT3=
EXTT4=
EXTT5=
EXTT6=
EXTT7=
EXTT8=
PLAYORDER=
